<?xml version="1.0" encoding="utf-8"?>
<!-- Generator: Adobe Illustrator 18.0.0, SVG Export Plug-In . SVG Version: 6.00 Build 0)  -->
<!DOCTYPE svg PUBLIC "-//W3C//DTD SVG 1.1//EN" "http://www.w3.org/Graphics/SVG/1.1/DTD/svg11.dtd">
<svg version="1.1" id="Calque_1" xmlns="http://www.w3.org/2000/svg" xmlns:xlink="http://www.w3.org/1999/xlink" x="0px" y="0px"
	 width="1000px" height="1000px" viewBox="-476 -476 1000 1000" enable-background="new -476 -476 1000 1000" xml:space="preserve">
<path d="M230.2,147.7h-43.8l-15.1-15.1c54-62.5,86.4-143.7,86.4-232.6C257.8-297.8,97.5-458-100.1-458S-458-297.8-458-100.1
	s160.2,357.9,357.9,357.9c88.9,0,170.1-32.5,232.6-86.2l15.1,15.1v43.5L423,505l82-82L230.2,147.7z M-100.1,147.7
	c-136.8,0-247.8-110.9-247.8-247.8s110.9-247.8,247.8-247.8s247.8,110.9,247.8,247.8S36.7,147.7-100.1,147.7z"/>
</svg>
