<?xml version="1.0" encoding="utf-8"?>
<!-- Generator: Adobe Illustrator 18.0.0, SVG Export Plug-In . SVG Version: 6.00 Build 0)  -->
<!DOCTYPE svg PUBLIC "-//W3C//DTD SVG 1.1//EN" "http://www.w3.org/Graphics/SVG/1.1/DTD/svg11.dtd">
<svg version="1.1" id="Calque_1" xmlns="http://www.w3.org/2000/svg" xmlns:xlink="http://www.w3.org/1999/xlink" x="0px" y="0px"
	 width="1000px" height="1000px" viewBox="-476 -476 1000 1000" enable-background="new -476 -476 1000 1000" xml:space="preserve">
<g>
	<g>
		<path fill="#231F20" d="M-331.8-420.8c-59.3,0-98.9,39.5-96.7,92.3c0,50.5,39.5,94.5,96.7,94.5c59.3,0,98.9-41.7,98.9-94.5
			C-235.1-381.3-274.6-420.8-331.8-420.8z M-426.2,466.7h184.5v-634.9h-184.5V466.7z M259.2-159.4c-59.3,0-120.8-11-184.5,87.9h-2.2
			l-2.2-96.7H-92.3c2.2,50.5,2.2,129.6,2.2,204.3v428.4H94.4V102c0-17.6,2.2-33,6.6-46.1c11-33,41.7-70.3,94.5-70.3
			c65.9,0,94.5,50.5,94.5,129.6v353.7h186.7V88.9C474.5-86.9,384.4-159.4,259.2-159.4z"/>
	</g>
</g>
</svg>
