<?xml version="1.0" encoding="utf-8"?>
<!-- Generator: Adobe Illustrator 18.0.0, SVG Export Plug-In . SVG Version: 6.00 Build 0)  -->
<!DOCTYPE svg PUBLIC "-//W3C//DTD SVG 1.1//EN" "http://www.w3.org/Graphics/SVG/1.1/DTD/svg11.dtd">
<svg version="1.1" id="Calque_1" xmlns="http://www.w3.org/2000/svg" xmlns:xlink="http://www.w3.org/1999/xlink" x="0px" y="0px"
	 width="1000px" height="1000px" viewBox="-476 -476 1000 1000" enable-background="new -476 -476 1000 1000" xml:space="preserve">
<g>
	<path fill="#231F20" d="M68.9,114.8c-20.7-9.2-43.7-16.1-64.4-16.1c-16.1,0-39.1-2.3-73.6-2.3c-34.5-2.3-62.1-2.3-82.8-2.3
		c-18.4,0-36.8,0-55.2-2.3c-18.4,0-34.5-2.3-46-6.9c-11.5-2.3-25.3-9.2-34.5-18.4s-16.1-23-16.1-41.4c0-16.1,6.9-29.9,18.4-39.1
		c11.5-9.2,20.7-16.1,34.5-18.4h82.8c64.4,0,119.5-20.7,167.8-62.1s73.6-92,73.6-149.4c0-20.7-2.3-46-11.5-71.3s-20.7-46-36.8-64.4
		v-4.6h158.6v-69H-50.7c-20.7-6.9-43.7-11.5-62.1-16.1c-20.7-2.3-39.1-6.9-62.1-6.9c-73.6,0-135.6,20.7-183.9,62.1
		S-430-319.7-430-257.7c0,43.7,11.5,80.5,36.8,112.6c25.3,34.5,57.5,57.5,101.1,80.5v9.2c-34.5,16.1-62.1,29.9-75.9,52.9
		c-18.4,20.7-25.3,43.7-25.3,66.7c0,18.4,2.3,36.8,11.5,48.3s18.4,25.3,27.6,34.5s25.3,16.1,36.8,20.7c16.1,6.9,27.6,11.5,43.7,16.1
		v9.2c-55.2,2.3-103.4,18.4-140.2,43.7c-36.8,27.6-55.2,64.4-55.2,110.3c0,57.5,25.3,101.1,75.9,131c52.9,29.9,126.4,46,229.9,46
		c62.1,0,117.2-6.9,156.3-18.4c39.1-11.5,80.5-27.6,110.3-48.3c27.6-20.7,48.3-46,64.4-73.6c16.1-27.6,20.7-57.5,20.7-92
		s-6.9-57.5-16.1-82.8c-9.2-20.7-25.3-43.7-43.7-57.5C108,135.4,89.6,123.9,68.9,114.8z M-92-131.2c-20.7,29.9-52.9,48.3-92,48.3
		c-34.5,0-64.4-16.1-85.1-48.3c-20.7-29.9-34.5-73.6-34.5-121.8c0-20.7,2.3-43.7,6.9-64.4c2.3-20.7,9.2-39.1,18.4-55.2
		c9.2-16.1,20.7-27.6,36.8-36.8s34.5-11.5,55.2-11.5c39.1,0,71.3,16.1,92,48.3c20.7,29.9,34.5,73.6,34.5,128.7
		C-59.9-202.5-69.1-163.4-92-131.2z M13.7,434.3c-39.1,25.3-92,39.1-158.6,39.1c-39.1,0-71.3-2.3-98.9-11.5
		c-27.6-6.9-48.3-18.4-64.4-29.9c-18.4-11.5-27.6-25.3-36.8-39.1c-6.9-16.1-9.2-29.9-9.2-46c0-36.8,9.2-64.4,29.9-85.1
		s55.2-39.1,103.4-48.3c52.9,0,98.9,0,137.9,2.3c39.1,2.3,66.7,2.3,80.5,6.9c25.3,6.9,43.7,18.4,55.2,34.5
		c11.5,16.1,18.4,36.8,18.4,64.4C71.2,369.9,52.8,409,13.7,434.3z"/>
	<path fill="#231F20" d="M333.2-250.8v135.6h52.9v-135.6h131v-52.9h-131v-135.6h-52.9v135.6h-131v52.9H333.2L333.2-250.8z"/>
</g>
</svg>
