<?xml version="1.0" encoding="utf-8"?>
<!-- Generator: Adobe Illustrator 18.0.0, SVG Export Plug-In . SVG Version: 6.00 Build 0)  -->
<!DOCTYPE svg PUBLIC "-//W3C//DTD SVG 1.1//EN" "http://www.w3.org/Graphics/SVG/1.1/DTD/svg11.dtd">
<svg version="1.1" id="Calque_1" xmlns="http://www.w3.org/2000/svg" xmlns:xlink="http://www.w3.org/1999/xlink" x="0px" y="0px"
	 viewBox="0 0 48 48" enable-background="new 0 0 48 48" xml:space="preserve">
<path fill="#231F20" d="M46.9,9.8c-1.7,0.8-3.4,1.3-5.3,1.5c1.8-1.3,3.4-3,4.1-5.2c-1.8,1-3.8,1.8-5.9,2.3c-1.7-1.8-4.1-3-6.8-3
	c-5.2,0-9.3,4.1-9.3,9.3c0,0.7,0.1,1.5,0.2,2.2C16,16.4,9.1,12.8,4.5,7.1c-0.6,1.4-1,3-1,4.7c0,3.2,1.6,6.1,4.1,7.7
	c-1.5,0-3-0.6-4.3-1.3v0.1c0,4.6,3.2,8.3,7.5,9.2c-0.8,0.2-1.6,0.2-2.4,0.2c-0.7,0-1.3,0-1.7-0.1c1.3,3.8,4.7,6.4,8.6,6.5
	c-3.2,2.5-7.2,4-11.6,4c-0.8,0-1.5,0-2.3-0.1c4.1,2.6,9.1,4.1,14.2,4.1c17.2,0,26.5-14.2,26.5-26.5c0-0.5,0-0.8,0-1.3
	C44.1,13.2,45.7,11.6,46.9,9.8z"/>
</svg>
