<?xml version="1.0" encoding="utf-8"?>
<!-- Generator: Adobe Illustrator 18.0.0, SVG Export Plug-In . SVG Version: 6.00 Build 0)  -->
<!DOCTYPE svg PUBLIC "-//W3C//DTD SVG 1.1//EN" "http://www.w3.org/Graphics/SVG/1.1/DTD/svg11.dtd">
<svg version="1.1" id="Calque_1" xmlns="http://www.w3.org/2000/svg" xmlns:xlink="http://www.w3.org/1999/xlink" x="0px" y="0px"
	 viewBox="0 0 48 48" enable-background="new 0 0 48 48" xml:space="preserve">
<path d="M40.7,1.4H7.3c-3.2,0-5.7,2.5-5.7,5.7v33.9c0,3.2,2.5,5.7,5.7,5.7h33.4c3.2,0,5.7-2.5,5.7-5.7V7.1
	C46.4,3.9,43.8,1.4,40.7,1.4z M33.3,23.9c0,5.2-4.1,9.3-9.3,9.3s-9.3-4.1-9.3-9.3c0-1.5,0.4-2.9,1.1-4.3c1.5-2.9,4.5-4.9,8.1-4.9
	s6.6,2.1,8.1,4.9C32.8,21.1,33.3,22.4,33.3,23.9z M41.3,39.1c0,1.3-0.9,2.3-2.3,2.3H9.3C8,41.5,7,40.5,7,39.1V19.7h3.9
	c-0.4,1.4-0.7,2.7-0.7,4.3c0,7.7,6.2,14,14,14s14-6.2,14-14c0-1.5-0.3-2.9-0.7-4.3h4v19.5H41.3z M41.3,12.4c0,1.3-0.9,2.3-2.3,2.3
	h-3.5c-1.3,0-2.3-0.9-2.3-2.3V8.6c0-0.9,0.7-1.8,1.5-2.2h4.3c1.3,0,2.3,0.9,2.3,2.3V12.4L41.3,12.4z"/>
</svg>
