<?xml version="1.0" encoding="utf-8"?>
<!-- Generator: Adobe Illustrator 18.0.0, SVG Export Plug-In . SVG Version: 6.00 Build 0)  -->
<!DOCTYPE svg PUBLIC "-//W3C//DTD SVG 1.1//EN" "http://www.w3.org/Graphics/SVG/1.1/DTD/svg11.dtd">
<svg version="1.1" id="Calque_1" xmlns="http://www.w3.org/2000/svg" xmlns:xlink="http://www.w3.org/1999/xlink" x="0px" y="0px"
	 width="1000px" height="1000px" viewBox="-484 -484 1000 1000" enable-background="new -484 -484 1000 1000" xml:space="preserve">
<g>
	<path d="M508.3-189.9c0,0-4-134.7-150.5-138.6c-150.5-4-324.7-7.9-324.7-7.9H1.3c0,0-170.3,4-320.8,7.9
		c-154.5,7.9-154.5,138.6-154.5,138.6s-19.8,217.8-4,380.2C-462,313-438.3,352.6-295.7,360.5c142.6,7.9,293.1,7.9,293.1,7.9h31.7
		c0,0,150.5,0,293.1-7.9c142.6-7.9,170.3-47.5,182.2-170.3C528.1,27.9,508.3-189.9,508.3-189.9z M-85.8,154.6v-285.1L183.5,12
		L-85.8,154.6z"/>
</g>
</svg>
